REM DIRINDEX 1
REM DIRNAME cjc069
TITLE ""
FILE "Disk3Track38.mp3" MP3
  TRACK 01 AUDIO
    TITLE "1:cjc069_1298"
    INDEX 01 00:00:00
  TRACK 02 AUDIO
    TITLE "1:cjc069_1299"
    INDEX 01 00:15:64
  TRACK 03 AUDIO
    TITLE "1:cjc069_1300"
    INDEX 01 00:23:57
  TRACK 04 AUDIO
    TITLE "1:cjc069_1301"
    INDEX 01 00:31:61
  TRACK 05 AUDIO
    TITLE "1:cjc069_1302"
    INDEX 01 00:42:41
  TRACK 06 AUDIO
    TITLE "0:"
    INDEX 01 00:48:34
